<svg height="685" version="1.1" width="574.326171875" xmlns="http://www.w3.org/2000/svg" xmlns:xlink="http://www.w3.org/1999/xlink" style="overflow: hidden; position: relative;" viewBox="0 0 574.326171875 685" preserveAspectRatio="xMidYMid meet"><desc style="-webkit-tap-highlight-color: rgba(0, 0, 0, 0);">Created with Raphaël 2.3.0</desc><defs style="-webkit-tap-highlight-color: rgba(0, 0, 0, 0);"><path stroke-linecap="round" d="M5,0 0,2.5 5,5z" id="raphael-marker-block" style="-webkit-tap-highlight-color: rgba(0, 0, 0, 0);"></path><marker id="raphael-marker-endblock33-obj4yr4v" markerHeight="3" markerWidth="3" orient="auto" refX="1.5" refY="1.5" style="-webkit-tap-highlight-color: rgba(0, 0, 0, 0);"><use xlink:href="#raphael-marker-block" transform="rotate(180 1.5 1.5) scale(0.6,0.6)" stroke-width="1.6667" fill="black" stroke="none" style="-webkit-tap-highlight-color: rgba(0, 0, 0, 0);"></use></marker><marker id="raphael-marker-endblock33-obj4eeum" markerHeight="3" markerWidth="3" orient="auto" refX="1.5" refY="1.5" style="-webkit-tap-highlight-color: rgba(0, 0, 0, 0);"><use xlink:href="#raphael-marker-block" transform="rotate(180 1.5 1.5) scale(0.6,0.6)" stroke-width="1.6667" fill="black" stroke="none" style="-webkit-tap-highlight-color: rgba(0, 0, 0, 0);"></use></marker><marker id="raphael-marker-endblock33-obj6u3zy" markerHeight="3" markerWidth="3" orient="auto" refX="1.5" refY="1.5" style="-webkit-tap-highlight-color: rgba(0, 0, 0, 0);"><use xlink:href="#raphael-marker-block" transform="rotate(180 1.5 1.5) scale(0.6,0.6)" stroke-width="1.6667" fill="black" stroke="none" style="-webkit-tap-highlight-color: rgba(0, 0, 0, 0);"></use></marker><marker id="raphael-marker-endblock33-objj35br" markerHeight="3" markerWidth="3" orient="auto" refX="1.5" refY="1.5" style="-webkit-tap-highlight-color: rgba(0, 0, 0, 0);"><use xlink:href="#raphael-marker-block" transform="rotate(180 1.5 1.5) scale(0.6,0.6)" stroke-width="1.6667" fill="black" stroke="none" style="-webkit-tap-highlight-color: rgba(0, 0, 0, 0);"></use></marker><marker id="raphael-marker-endblock33-obj0z27e" markerHeight="3" markerWidth="3" orient="auto" refX="1.5" refY="1.5" style="-webkit-tap-highlight-color: rgba(0, 0, 0, 0);"><use xlink:href="#raphael-marker-block" transform="rotate(180 1.5 1.5) scale(0.6,0.6)" stroke-width="1.6667" fill="black" stroke="none" style="-webkit-tap-highlight-color: rgba(0, 0, 0, 0);"></use></marker><marker id="raphael-marker-endblock33-objqbatq" markerHeight="3" markerWidth="3" orient="auto" refX="1.5" refY="1.5" style="-webkit-tap-highlight-color: rgba(0, 0, 0, 0);"><use xlink:href="#raphael-marker-block" transform="rotate(180 1.5 1.5) scale(0.6,0.6)" stroke-width="1.6667" fill="black" stroke="none" style="-webkit-tap-highlight-color: rgba(0, 0, 0, 0);"></use></marker><marker id="raphael-marker-endblock33-objrahuf" markerHeight="3" markerWidth="3" orient="auto" refX="1.5" refY="1.5" style="-webkit-tap-highlight-color: rgba(0, 0, 0, 0);"><use xlink:href="#raphael-marker-block" transform="rotate(180 1.5 1.5) scale(0.6,0.6)" stroke-width="1.6667" fill="black" stroke="none" style="-webkit-tap-highlight-color: rgba(0, 0, 0, 0);"></use></marker><marker id="raphael-marker-endblock33-objriong" markerHeight="3" markerWidth="3" orient="auto" refX="1.5" refY="1.5" style="-webkit-tap-highlight-color: rgba(0, 0, 0, 0);"><use xlink:href="#raphael-marker-block" transform="rotate(180 1.5 1.5) scale(0.6,0.6)" stroke-width="1.6667" fill="black" stroke="none" style="-webkit-tap-highlight-color: rgba(0, 0, 0, 0);"></use></marker><marker id="raphael-marker-endblock33-objgdnf7" markerHeight="3" markerWidth="3" orient="auto" refX="1.5" refY="1.5" style="-webkit-tap-highlight-color: rgba(0, 0, 0, 0);"><use xlink:href="#raphael-marker-block" transform="rotate(180 1.5 1.5) scale(0.6,0.6)" stroke-width="1.6667" fill="black" stroke="none" style="-webkit-tap-highlight-color: rgba(0, 0, 0, 0);"></use></marker><marker id="raphael-marker-endblock33-objahamw" markerHeight="3" markerWidth="3" orient="auto" refX="1.5" refY="1.5" style="-webkit-tap-highlight-color: rgba(0, 0, 0, 0);"><use xlink:href="#raphael-marker-block" transform="rotate(180 1.5 1.5) scale(0.6,0.6)" stroke-width="1.6667" fill="black" stroke="none" style="-webkit-tap-highlight-color: rgba(0, 0, 0, 0);"></use></marker><marker id="raphael-marker-endblock33-obj13sgl" markerHeight="3" markerWidth="3" orient="auto" refX="1.5" refY="1.5" style="-webkit-tap-highlight-color: rgba(0, 0, 0, 0);"><use xlink:href="#raphael-marker-block" transform="rotate(180 1.5 1.5) scale(0.6,0.6)" stroke-width="1.6667" fill="black" stroke="none" style="-webkit-tap-highlight-color: rgba(0, 0, 0, 0);"></use></marker></defs><rect x="0" y="0" width="48" height="35.5" rx="20" ry="20" fill="#ffffff" stroke="#000000" style="-webkit-tap-highlight-color: rgba(0, 0, 0, 0);" stroke-width="3" class="flowchart" id="st" transform="matrix(1,0,0,1,77.3789,6)"></rect><text x="10" y="17.75" text-anchor="start" font-family="&quot;Arial&quot;" font-size="14px" stroke="none" fill="#000000" style="-webkit-tap-highlight-color: rgba(0, 0, 0, 0); text-anchor: start; font-family: Arial; font-size: 14px;" id="stt" class="flowchartt" transform="matrix(1,0,0,1,77.3789,6)" stroke-width="1"><tspan style="-webkit-tap-highlight-color: rgba(0, 0, 0, 0);" dy="4.75">开始</tspan></text><rect x="0" y="0" width="190.7578125" height="35.5" rx="0" ry="0" fill="#ffffff" stroke="#000000" style="-webkit-tap-highlight-color: rgba(0, 0, 0, 0);" stroke-width="3" class="flowchart" id="op_problem" transform="matrix(1,0,0,1,181.3789,6)"></rect><text x="10" y="17.75" text-anchor="start" font-family="&quot;Arial&quot;" font-size="14px" stroke="none" fill="#000000" style="-webkit-tap-highlight-color: rgba(0, 0, 0, 0); text-anchor: start; font-family: Arial; font-size: 14px;" id="op_problemt" class="flowchartt" transform="matrix(1,0,0,1,181.3789,6)" stroke-width="1"><tspan style="-webkit-tap-highlight-color: rgba(0, 0, 0, 0);" dy="4.75">计算 f(x, y) = x*x + (y + 6)*x</tspan></text><path fill="#ffffff" stroke="#000000" d="M10,17.75L0,35.5L109.265625,35.5L129.265625,0L20,0L10,17.75" stroke-width="3" id="x_y_input" class="flowchart" style="-webkit-tap-highlight-color: rgba(0, 0, 0, 0);" transform="matrix(1,0,0,1,212.125,97.5)"></path><text x="30" y="17.75" text-anchor="start" font-family="&quot;Arial&quot;" font-size="14px" stroke="none" fill="#000000" style="-webkit-tap-highlight-color: rgba(0, 0, 0, 0); text-anchor: start; font-family: Arial; font-size: 14px;" id="x_y_inputt" class="flowchartt" transform="matrix(1,0,0,1,212.125,97.5)" stroke-width="1"><tspan style="-webkit-tap-highlight-color: rgba(0, 0, 0, 0);" dy="4.75">x = 3, y = 3</tspan></text><rect x="0" y="0" width="90" height="35.5" rx="0" ry="0" fill="#ffffff" stroke="#000000" style="-webkit-tap-highlight-color: rgba(0, 0, 0, 0);" stroke-width="3" class="flowchart" id="two_parts_compute" transform="matrix(1,0,0,1,231.7578,189)"></rect><text x="10" y="17.75" text-anchor="start" font-family="&quot;Arial&quot;" font-size="14px" stroke="none" fill="#000000" style="-webkit-tap-highlight-color: rgba(0, 0, 0, 0); text-anchor: start; font-family: Arial; font-size: 14px;" id="two_parts_computet" class="flowchartt" transform="matrix(1,0,0,1,231.7578,189)" stroke-width="1"><tspan style="-webkit-tap-highlight-color: rgba(0, 0, 0, 0);" dy="4.75">分两步计算</tspan></text><rect x="0" y="0" width="104.40625" height="35.5" rx="0" ry="0" fill="#ffffff" stroke="#000000" style="-webkit-tap-highlight-color: rgba(0, 0, 0, 0);" stroke-width="3" class="flowchart" id="right_part" transform="matrix(1,0,0,1,420.9336,189)"></rect><text x="10" y="17.75" text-anchor="start" font-family="&quot;Arial&quot;" font-size="14px" stroke="none" fill="#000000" style="-webkit-tap-highlight-color: rgba(0, 0, 0, 0); text-anchor: start; font-family: Arial; font-size: 14px;" id="right_partt" class="flowchartt" transform="matrix(1,0,0,1,420.9336,189)" stroke-width="1"><tspan style="-webkit-tap-highlight-color: rgba(0, 0, 0, 0);" dy="4.75">计算 (y + 6)*x</tspan></text><path fill="#ffffff" stroke="#000000" d="M10,17.75L0,35.5L87.46875,35.5L107.46875,0L20,0L10,17.75" stroke-width="3" id="right_result" class="flowchart" style="-webkit-tap-highlight-color: rgba(0, 0, 0, 0);" transform="matrix(1,0,0,1,419.4023,280.5)"></path><text x="30" y="17.75" text-anchor="start" font-family="&quot;Arial&quot;" font-size="14px" stroke="none" fill="#000000" style="-webkit-tap-highlight-color: rgba(0, 0, 0, 0); text-anchor: start; font-family: Arial; font-size: 14px;" id="right_resultt" class="flowchartt" transform="matrix(1,0,0,1,419.4023,280.5)" stroke-width="1"><tspan style="-webkit-tap-highlight-color: rgba(0, 0, 0, 0);" dy="4.75">得到 27</tspan></text><rect x="0" y="0" width="48" height="35.5" rx="0" ry="0" fill="#ffffff" stroke="#000000" style="-webkit-tap-highlight-color: rgba(0, 0, 0, 0);" stroke-width="3" class="flowchart" id="op_add" transform="matrix(1,0,0,1,252.7578,463.5)"></rect><text x="10" y="17.75" text-anchor="start" font-family="&quot;Arial&quot;" font-size="14px" stroke="none" fill="#000000" style="-webkit-tap-highlight-color: rgba(0, 0, 0, 0); text-anchor: start; font-family: Arial; font-size: 14px;" id="op_addt" class="flowchartt" transform="matrix(1,0,0,1,252.7578,463.5)" stroke-width="1"><tspan style="-webkit-tap-highlight-color: rgba(0, 0, 0, 0);" dy="4.75">相加</tspan></text><path fill="#ffffff" stroke="#000000" d="M10,17.75L0,35.5L87.46875,35.5L107.46875,0L20,0L10,17.75" stroke-width="3" id="add_result" class="flowchart" style="-webkit-tap-highlight-color: rgba(0, 0, 0, 0);" transform="matrix(1,0,0,1,223.0234,555)"></path><text x="30" y="17.75" text-anchor="start" font-family="&quot;Arial&quot;" font-size="14px" stroke="none" fill="#000000" style="-webkit-tap-highlight-color: rgba(0, 0, 0, 0); text-anchor: start; font-family: Arial; font-size: 14px;" id="add_resultt" class="flowchartt" transform="matrix(1,0,0,1,223.0234,555)" stroke-width="1"><tspan style="-webkit-tap-highlight-color: rgba(0, 0, 0, 0);" dy="4.75">得到 36</tspan></text><rect x="0" y="0" width="48" height="35.5" rx="20" ry="20" fill="#ffffff" stroke="#000000" style="-webkit-tap-highlight-color: rgba(0, 0, 0, 0);" stroke-width="3" class="flowchart" id="end" transform="matrix(1,0,0,1,252.7578,646.5)"></rect><text x="10" y="17.75" text-anchor="start" font-family="&quot;Arial&quot;" font-size="14px" stroke="none" fill="#000000" style="-webkit-tap-highlight-color: rgba(0, 0, 0, 0); text-anchor: start; font-family: Arial; font-size: 14px;" id="endt" class="flowchartt" transform="matrix(1,0,0,1,252.7578,646.5)" stroke-width="1"><tspan style="-webkit-tap-highlight-color: rgba(0, 0, 0, 0);" dy="4.75">结束</tspan></text><rect x="0" y="0" width="71.34375" height="35.5" rx="0" ry="0" fill="#ffffff" stroke="#000000" style="-webkit-tap-highlight-color: rgba(0, 0, 0, 0);" stroke-width="3" class="flowchart" id="left_part" transform="matrix(1,0,0,1,241.0859,280.5)"></rect><text x="10" y="17.75" text-anchor="start" font-family="&quot;Arial&quot;" font-size="14px" stroke="none" fill="#000000" style="-webkit-tap-highlight-color: rgba(0, 0, 0, 0); text-anchor: start; font-family: Arial; font-size: 14px;" id="left_partt" class="flowchartt" transform="matrix(1,0,0,1,241.0859,280.5)" stroke-width="1"><tspan style="-webkit-tap-highlight-color: rgba(0, 0, 0, 0);" dy="4.75">计算 x*x</tspan></text><path fill="#ffffff" stroke="#000000" d="M10,17.75L0,35.5L79.6796875,35.5L99.6796875,0L20,0L10,17.75" stroke-width="3" id="left_result" class="flowchart" style="-webkit-tap-highlight-color: rgba(0, 0, 0, 0);" transform="matrix(1,0,0,1,226.918,372)"></path><text x="30" y="17.75" text-anchor="start" font-family="&quot;Arial&quot;" font-size="14px" stroke="none" fill="#000000" style="-webkit-tap-highlight-color: rgba(0, 0, 0, 0); text-anchor: start; font-family: Arial; font-size: 14px;" id="left_resultt" class="flowchartt" transform="matrix(1,0,0,1,226.918,372)" stroke-width="1"><tspan style="-webkit-tap-highlight-color: rgba(0, 0, 0, 0);" dy="4.75">得到 9</tspan></text><path fill="none" stroke="#000000" d="M125.37890625,23.75C125.37890625,23.75,163.57967710494995,23.75,176.87906656763516,23.75" stroke-width="3" marker-end="url(#raphael-marker-endblock33-obj4yr4v)" style="-webkit-tap-highlight-color: rgba(0, 0, 0, 0);"></path><path fill="none" stroke="#000000" d="M276.7578125,41.5C276.7578125,41.5,276.7578125,79.70077085494995,276.7578125,93.00016031763516" stroke-width="3" marker-end="url(#raphael-marker-endblock33-obj4eeum)" style="-webkit-tap-highlight-color: rgba(0, 0, 0, 0);"></path><path fill="none" stroke="#000000" d="M276.7578125,133C276.7578125,133,276.7578125,171.20077085494995,276.7578125,184.50016031763516" stroke-width="3" marker-end="url(#raphael-marker-endblock33-obj6u3zy)" style="-webkit-tap-highlight-color: rgba(0, 0, 0, 0);"></path><path fill="none" stroke="#000000" d="M321.7578125,206.75C321.7578125,206.75,397.0550130933989,206.75,416.4308064101573,206.75" stroke-width="3" marker-end="url(#raphael-marker-endblock33-objj35br)" style="-webkit-tap-highlight-color: rgba(0, 0, 0, 0);"></path><path fill="none" stroke="#000000" d="M276.7578125,224.5C276.7578125,224.5,276.7578125,262.70077085494995,276.7578125,276.00016031763516" stroke-width="3" marker-end="url(#raphael-marker-endblock33-obj0z27e)" style="-webkit-tap-highlight-color: rgba(0, 0, 0, 0);"></path><path fill="none" stroke="#000000" d="M473.13671875,224.5C473.13671875,224.5,473.13671875,262.70077085494995,473.13671875,276.00016031763516" stroke-width="3" marker-end="url(#raphael-marker-endblock33-objqbatq)" style="-webkit-tap-highlight-color: rgba(0, 0, 0, 0);"></path><path fill="none" stroke="#000000" d="M473.13671875,316C473.13671875,316,473.13671875,438.5,473.13671875,438.5C473.13671875,438.5,276.7578125,438.5,276.7578125,438.5C276.7578125,438.5,276.7578125,451.8039712905884,276.7578125,459.0016276333481" stroke-width="3" marker-end="url(#raphael-marker-endblock33-objrahuf)" style="-webkit-tap-highlight-color: rgba(0, 0, 0, 0);"></path><path fill="none" stroke="#000000" d="M276.7578125,499C276.7578125,499,276.7578125,537.20077085495,276.7578125,550.5001603176352" stroke-width="3" marker-end="url(#raphael-marker-endblock33-objriong)" style="-webkit-tap-highlight-color: rgba(0, 0, 0, 0);"></path><path fill="none" stroke="#000000" d="M276.7578125,590.5C276.7578125,590.5,276.7578125,628.70077085495,276.7578125,642.0001603176352" stroke-width="3" marker-end="url(#raphael-marker-endblock33-objgdnf7)" style="-webkit-tap-highlight-color: rgba(0, 0, 0, 0);"></path><path fill="none" stroke="#000000" d="M276.7578125,316C276.7578125,316,276.7578125,354.20077085494995,276.7578125,367.50016031763516" stroke-width="3" marker-end="url(#raphael-marker-endblock33-objahamw)" style="-webkit-tap-highlight-color: rgba(0, 0, 0, 0);"></path><path fill="none" stroke="#000000" d="M276.7578125,407.5C276.7578125,407.5,276.7578125,453.5,276.7578125,453.5C276.7578125,453.5,276.7578125,456.34305572509766,276.7578125,458.99731478095055" stroke-width="3" marker-end="url(#raphael-marker-endblock33-obj13sgl)" style="-webkit-tap-highlight-color: rgba(0, 0, 0, 0);"></path></svg>